<?xml version="1.0" encoding="UTF-8"?>
<svg xmlns="http://www.w3.org/2000/svg" xml:space="preserve"
     width="256" height="256" version="1.1"
     style="shape-rendering:geometricPrecision;text-rendering:geometricPrecision;image-rendering:optimizeQuality;fill-rule:evenodd;clip-rule:evenodd"
     viewBox="3433 2418 570 570"
     xmlns:xlink="http://www.w3.org/1999/xlink">
 <defs>
  <style type="text/css">
   <![CDATA[
    .fil3 {fill:#00A859}
    .fil2 {fill:#003399}
    .fil1 {fill:#FFD700}
    .fil5 {fill:red}
    .fil4 {fill:red}
    .fil0 {fill:#F4831F}
   ]]>
  </style>
 </defs>
 <g>
  <path class="fil0" d="M3511.76 2648.81l31.1 4.51c26.98,-118.38 83.2,-175.14 162.99,-182.24l6.98 -29.74c-77.5,-11.11 -190.27,75.09 -201.07,207.47z"/>
  <path class="fil1" d="M3511.98 2667.5l34.06 0.94c2.12,83.43 76.53,117.59 95.08,187.56 -94.16,-45.82 -130.56,-137.91 -129.14,-188.5z"/>
  <path class="fil1" d="M3554.26 2663.84l32.34 2.3c-0.42,84.7 139.59,144.94 180.17,30.3l-1.52 -46.07 62.06 0.83 -10.23 47.68c-25.3,130.8 -248.12,148.48 -262.83,-35.04z"/>
  <path class="fil2" d="M3855.97 2632.95l28.64 1.63c4.3,86.34 -50.37,158.9 -108.95,183.61l-2.74 43.74 -119.69 -1.68 -2.24 -38.98 -29.2 -22.57 34.82 7.18c133.18,30.93 179.38,-63.64 199.37,-172.93z"/>
  <path class="fil3" d="M3681.47 2750.7c-99.33,-153.56 56.04,-295.93 175.18,-107.13l68.54 0c-1.98,-104.74 -73.84,-186.17 -187.35,-201.72l-0.65 25.82c96.94,8.4 126.74,107.56 128,128.31 -24.88,-34.63 -63.46,-74.36 -137.09,-79.3 -108.78,-6.49 -177.13,202.5 -46.61,234.01z"/>
  <path class="fil4" d="M3554.26 2663.84l32.34 2.3c21.21,-246.05 220.86,-125.69 206.84,-172.94 -121.54,-64.88 -248.17,50.36 -239.18,170.64z"/>
  <path class="fil0" d="M3791.38 2825.38c78.53,-44.54 78.94,-96.41 97.27,-164.73l36.03 -3.05c3.89,83.74 -51.85,158.69 -130.43,198.41l-2.88 -30.63z"/>
  <rect class="fil2" x="3656.77" y="2874.5" width="116.97" height="15.88"/>
  <rect class="fil2" x="3655.81" y="2903.87" width="116.97" height="15.88"/>
  <path class="fil2" d="M3696.13 2955.22c-11.31,-2.43 -15.24,-13.99 -13.94,-22.52l59.64 0.26c2.35,8.71 -3.71,18.72 -14.7,22.86l-31 -0.6z"/>
  <path class="fil5" d="M3796.67 2644.71c-10.81,0 -19.4,-8.52 -19.38,-20.67 -0.06,-1.21 0.04,-2.42 0.28,-3.59 0.42,-2.21 1.43,-6.54 2.25,-9.92 0.47,-1.94 3.52,-2.8 5.24,-2.25 2.35,0.75 3.79,-1.62 4.28,-4.3 0.53,-3.08 1.46,-6.06 2.74,-8.81 3.02,-6.35 8.35,-1.44 12.02,4.45 1.5,2.29 3.23,4.36 5.15,6.18 7.63,9.04 8.66,24.91 0.48,33.34 -3.63,3.67 -8.28,5.66 -13.06,5.57z"/>
 </g>
</svg>
